<svg version="1.0" xmlns="http://www.w3.org/2000/svg" width="821px" height="714px" viewBox="0 0 821 714" preserveAspectRatio="xMidYMid meet">
                            <g fill="#FFF" fill-rule="evenodd">
                             <path d="M331 670 L327.5 670L324 670L324 670 L324 669.5C324 669.2 325.5 669 327.5 669 C329.4 669 331 669.2 331 669.5 L331 670L331 670 L331.5 674L332 678L332 678 L331.4 674.7C331.1 672.9 330.9 671.1 330.9 670.7 L331 670"/>
                             <path d="M484 661 L484.5 661.7C484.7 662.1 485 662.8 485 663.2 C485 663.6 485 667.1 485 671 L485 678L485 678 L484.4 670.2C484.1 665.9 483.9 662.1 483.9 661.7 L484 661"/>
                             <path d="M516 678 L516.5 669L517 660L517 660 L517 660.7C517 661.1 516.8 665.2 516.5 669.7 L516 678"/>
                             <path d="M444 670 L444 669.5C444 669.2 445.8 669 448 669 C450.2 669 452 669.2 452 669.5 L452 670L452 670 L451.5 670C451.2 670 449.4 670 447.5 670 L444 670"/>
                             <path d="M527 663 L527.5 662.6C527.7 662.4 528 662 528 661.6 L528 661L528 661 L530.5 663.1C531.8 664.3 533 665.4 533 665.5 C533 665.5 533.2 665.8 533.5 666.1 C533.7 666.4 534 666.9 534 667.3 L534 668L534 668 L533.5 668C533.2 668 532.7 668 532.5 668 L532 668L531 668 L530.5 667.3C530.2 666.9 530 666.6 530 666.5 C530 666.4 529.3 665.6 528.5 664.7 L527 663"/>
                             <path d="M440 667 L440 663.5L440 660L440 660 L438.5 660C437.6 660 436.7 660 436.5 660 C436.2 660 436 659.7 436 659.5 L436 659L436 659 L436.7 658.9C437.1 658.9 438 659.2 438.7 659.4 L440 660L440 660 L440.5 660C440.7 660 441 661.5 441 663.5 C441 665.4 440.7 667 440.5 667 L440 667"/>
                             <path d="M356 666 L356.5 663L357 660L357 660 L357 660.7C357 661.1 356.8 662.5 356.5 663.7 L356 666"/>
                             <path d="M419 665 L419 664C419 663.4 419 662.6 419 662.2 C419 661.8 419.2 661.1 419.5 660.7 L420 660L420 660 L420.7 659.5C421.1 659.2 421.8 659 422.2 659 L423 659L423 659 L421.5 659.5L420 660L420 660 L419.5 662.5L419 665"/>
                             <path d="M302 662 L304.7 661.4C306.2 661.1 307.8 660.9 308.2 660.9 L309 661L309 661 L306.2 661.5C304.7 661.8 303.1 662 302.7 662 L302 662"/>
                             <path d="M467 662 L469.7 661.4C471.2 661.1 472.8 660.9 473.2 660.9 L474 661L474 661 L471.2 661.5C469.7 661.8 468.1 662 467.7 662 L467 662"/>
                             <path d="M292 660 L292 659.5C292 659.2 295.6 659 300 659 C304.4 659 308 659.2 308 659.5 L308 660L308 660 L306 660C304.9 660 303.7 660 303.5 660 C303.2 660 300.5 660 297.5 660 L292 660"/>
                             <path d="M313 660 L313 659.5C313 659.2 314.3 659 316 659 C317.6 659 319 659.2 319 659.5 L319 660L319 660 L318 660C317.4 660 316.7 660 316.5 660 C316.2 660 315.3 660 314.5 660 L313 660"/>
                             <path d="M336 660 L336 659.5C336 659.2 339.6 659 344 659 C348.4 659 352 659.2 352 659.5 L352 660L352 660 L350 660C348.9 660 347.7 660 347.5 660 C347.2 660 344.5 660 341.5 660 L336 660"/>
                             <path d="M358 660 L358 659.5C358 659.2 362 659 367 659 C371.9 659 376 659.2 376 659.5 L376 660L376 660 L369 660C365.1 660 361.7 660 361.5 660 C361.2 660 360.3 660 359.5 660 L358 660"/>
                             <path d="M382 660 L382 659.5C382 659.2 383.3 659 385 659 C386.6 659 388 659.2 388 659.5 L388 660L388 660 L387 660C386.4 660 385.7 660 385.5 660 C385.2 660 384.3 660 383.5 660 L382 660"/>
                             <path d="M402 660 L402 659.5C402 659.2 405.1 659 409 659 C412.8 659 416 659.2 416 659.5 L416 660L416 660 L411.5 660C409 660 406.7 660 406.5 660 C406.2 660 405.1 660 404 660 L402 660"/>
                             <path d="M452 660 L451 660C450.4 660 449.7 660 449.5 660 C449.2 660 448.3 660 447.5 660 L446 660L446 660 L446 659.5C446 659.2 447.3 659 449 659 C450.6 659 452 659.2 452 659.5 L452 660"/>
                             <path d="M456 660 L456 659.5C456 659.2 460 659 465 659 C469.9 659 474 659.2 474 659.5 L474 660L474 660 L467 660C463.1 660 459.7 660 459.5 660 C459.2 660 458.3 660 457.5 660 L456 660"/>
                             <path d="M488 660 L488 659.5C488 659.2 490.9 659 494.5 659 C498 659 501 659.2 501 659.5 L501 660L501 660 L496.5 660C494 660 491.7 660 491.5 660 C491.2 660 490.3 660 489.5 660 L488 660"/>
                             <path d="M529 660 L529 659.5C529 659.2 532.8 659 537.5 659 C542.1 659 546 659.2 546 659.5 L546 660L546 660 L541.5 660C539 660 536.7 660 536.5 660 C536.2 660 534.4 660 532.5 660 L529 660"/>
                             <path d="M284 629 L284.7 628.9C285.1 628.9 286.7 629.1 288.2 629.4 L291 630L291 630 L290.2 630C289.8 630 288.2 629.8 286.7 629.5 L284 629"/>
                             <path d="M265 627 L264.4 624.2C264.1 622.7 263.9 621.1 263.9 620.7 L264 620L264 620 L264.5 622.7C264.8 624.2 265 625.8 265 626.2 L265 627L265 627 L266.5 627L268 627L268 627 L268 627.5C268 627.7 267.3 628 266.5 628 C265.6 628 265 627.7 265 627.5 L265 627"/>
                             <path d="M479 627 L480.5 627L482 627L482 627 L482 625.5C482 624.6 481.9 623.6 481.9 623.2 C481.9 622.8 482.1 621.2 482.4 619.7 L483 617L483 617 L483 617.7C483 618.1 482.8 620.4 482.5 622.7 L482 627L482 627 L482 627.5C482 627.7 481.3 628 480.5 628 C479.6 628 479 627.7 479 627.5 L479 627"/>
                             <path d="M509 609 L509.5 613L510 617L510 617 L509.4 613.7C509.1 611.9 508.9 610.1 508.9 609.7 L509 609"/>
                             <path d="M264 615 L264 614C264 613.4 264 612.7 264 612.5 C264 612.2 264 611.3 264 610.5 L264 609L264 609 L264.5 609C264.7 609 265 610.3 265 612 C265 613.6 264.7 615 264.5 615 L264 615"/>
                             <path d="M279 614 L283.7 613.4C286.3 613.1 288.8 612.9 289.2 612.9 L290 613L290 613 L289.6 613.5C289.4 613.7 289 614 288.6 614 C288.3 614 285.9 614 283.5 614 L279 614"/>
                             <path d="M257 573.3 L258 572.6 L259 573 L259.7 573.5C260.1 573.8 261.5 574.8 262.8 575.8 C264.1 576.8 264.8 577.9 264.3 578.2 C263.8 578.6 262 577.7 260.4 576.4 C258.8 575.1 257.3 574 257.2 574 L257 574"/>
                             <path d="M319 573 L320 572.5L321 572L321 572 L321.2 572C321.3 572 322.5 573.3 323.7 574.9 C324.9 576.5 326 578.1 326 578.4 C326 578.7 324.4 577.8 322.5 576.2 C320.5 574.7 319 573.3 319 573.2 L319 573"/>
                             <path d="M546 573 L546.5 573C546.7 573 547 572.7 547 572.5 L547 572L547 572 L547.2 572.1C547.3 572.1 549.6 573.4 552.2 574.8 C554.8 576.3 556.9 577.8 556.9 578.2 C556.9 578.6 554.5 577.7 551.5 576.2 C548.4 574.7 546 573.4 546 573.2 L546 573"/>
                             <path d="M370 578 L370 571C370 567.1 370 563.6 370 563.2 C370 562.8 370.2 562.1 370.5 561.7 L371 561L371 561 L371 561.7C371 562.1 370.8 565.9 370.5 570.2 L370 578"/>
                             <path d="M444 578 L444 571C444 567.1 444 563.6 444 563.2 C444 562.8 444.2 562.1 444.5 561.7 L445 561L445 561 L445 561.7C445 562.1 444.8 565.9 444.5 570.2 L444 578"/>
                             <path d="M470.7 574.5 L471 574 L471 573 L470.5 571.5L470 570L470 570 L470 569.7C470 569.5 470.5 568.8 471.2 568.2 C472.1 567.2 472.1 567 471.2 567 L470 567L469.6 566 470.3 565 L471 565 L471.7 565C472.1 565 472.8 565.2 473.2 565.5 L474 566L474 566 L473.5 567L473 568L473 568 L472 571L471 574L471 574 470.5 574.5 L470 574.6 470.7 574.5 "/>
                             <path d="M387.7 570.5 L388 570 L388 569 L387.5 569C387.2 569 387 568.7 387 568.5 L387 568L387 568 L386.5 568C386.2 568 386 567.7 386 567.5 L386 567L386 567 L386.5 567C386.7 567 387 567.2 387 567.5 L387 568L387 568 L387.5 568C387.7 568 388.2 568 388.5 568 L389 568L389.5 568.5 L390 569 L389.6 569C389.4 569 389 569.2 388.6 569.5 L388 570L388 570 387.5 570.5 L387.3 571 387.7 570.5 "/>
                             <path d="M263 568 L263 567.6C263 567.4 263.2 567.1 263.5 566.8 C263.7 566.5 263.7 566 263.5 565.6 L263 565L263.5 565.5 263.8 566.1 L264 566 L264.5 566C264.7 566 265 566.2 265 566.5 L265 567L266 567 L266 567.5C266 567.7 266 568.2 266 568.5 L266 569L266 569 L265 568.5C264.5 568.2 263.9 568 263.5 568 L263 568"/>
                             <path d="M308 557 L307 555.5L306 554L306 553 L306 552.5C306 552.2 306 551.7 306 551.5 L306 551L306 551 L305.5 551C305.2 551 305 550.7 305 550.5 L305 550L305 550 L305.5 550C305.7 550 306 550.2 306 550.5 L306 551L306 551 L307.5 552.6C308.3 553.6 309 554.4 309 554.5 C309 554.6 309.2 554.9 309.5 555.3 L310 556L310 556 L310.5 556C310.7 556 311 556.2 311 556.5 L311 557L311 557 L310.5 557C310.2 557 310 556.7 310 556.5 L310 556L310 556 L309.6 556C309.4 556 309 556.2 308.6 556.5 L308 557"/>
                             <path d="M564 556 L563.5 556C563.2 556 562.7 556 562.5 556 L562 556L562 555 L561.5 555C561.2 555 561 554.7 561 554.5 L561 554L560.7 553.7 561.3 553 L562 553 L563 554.5L564 556L564 556 L564.5 556C564.7 556 565 556.2 565 556.5 L565 557L565 557 L564.5 557C564.2 557 564 556.7 564 556.5 L564 556"/>
                             <path d="M438 553 L437.5 553C437.2 553 437 552.7 437 552.5 L437 552L437 552 L437.5 552C437.7 552 438 552.2 438 552.5 L438 553L438 553 L438.5 553C438.7 553 439 552.7 439 552.5 L439 552L439 552 L439.6 552.5C440 552.7 440.4 553 440.6 553 C440.8 553 441 553.2 441 553.5 L441 554L441 554.6 440 555.3 L439 555 L438.5 554.3C438.2 553.9 438 553.5 438 553.3 L438 553"/>
                             <path d="M474 408 L477.2 404.5C479 402.6 481.9 399 483.7 396.4 C485.5 393.8 487 392.4 487 393.3 L487 395L487 395 L487 395.5C487 395.8 487.2 397.9 487.5 400 L488 404L488 404 L487.5 404C487.2 404 487 411.6 487 421 C487 430.3 487.2 438 487.5 438 L488 438L488 438 L488 446C488 450.4 488.2 454 488.5 454 C488.8 454 490.4 453.2 492.2 452.3 C493.9 451.5 498.9 449.7 503.4 448.4 C507.8 447.1 514.4 445.6 518 445 C521.5 444.4 528.3 444 533 444 C537.6 444 544.4 444.6 548 445.4 C551.6 446.1 557.3 447.9 560.7 449.3 C564 450.6 569.4 453.5 572.5 455.6 C575.7 457.6 581 462.1 584.4 465.4 C587.8 468.7 592 473.3 593.8 475.5 L597 479.5 595.5 475.6 C594.6 473.4 591.9 468.9 589.5 465.4 C587 462 582.6 457 579.7 454.5 C576.8 451.9 570.8 448 566.3 445.9 C561.9 443.7 555.1 441.2 551.3 440.4 C547.5 439.6 540.6 439 536 439 C530.8 439 524.3 439.7 519.5 440.9 C515.1 442 507.2 444.5 502 446.5 C496.7 448.5 491.7 450.3 490.7 450.6 C489.1 451.1 489 449.7 489 430.6 L489 410L489 410 L489.5 401.2C489.8 396.4 490 392.1 490 391.7 L490 391L490 391 L490 389.5C490 388.6 490 387.4 490 386.7 C490 386 490.9 382.9 492 379.7 L494 374L494 374 L494 381.5C494 387.3 494.3 389.1 495.5 389.6 C496.3 389.9 497.8 389.5 498.8 388.6 C499.8 387.7 501.1 387 501.7 387 C502.2 387 503.3 387.6 503.9 388.4 C504.6 389.3 504.9 391 504.5 392.4 C504.1 394.3 503.2 395 501.4 395 C500.1 395 499 394.5 499 394 C499 393.4 497.8 393 496.5 393 L494 393 494 404 C494 413.2 494.2 415.1 495.6 415.6 C496.6 416 497.9 415.4 499 413.9 C500.5 411.9 501.2 411.7 502.7 412.6 C503.9 413.3 504.5 414.9 504.5 417.5 C504.5 420.1 503.9 421.6 502.6 422.3 C501.1 423.2 500.5 423 499.2 421.2 C498.4 420 496.9 419 495.8 419 C494.1 419 494 419.9 494 432 C494 439.1 494.2 445 494.5 445 C494.8 445 496.8 443.8 499 442.4 C501.1 441.1 506.3 438.8 510.5 437.4 C514.9 435.9 521.7 434.6 526.4 434.3 C531 433.9 539.1 434.2 544.5 434.9 C550 435.6 557.3 437 560.9 438.1 C564.5 439.2 570.6 441.8 574.4 443.8 C578.4 445.9 584.1 450.1 587.7 453.6 C591.9 457.8 595 461.9 597.2 466.6 C600.2 472.8 600.5 474.3 600.5 483 C600.5 491.4 600.1 493.1 597.6 498.4 C595.9 501.7 592.1 506.7 588.7 510.1 C584.6 514.2 580 517.3 573.6 520.5 C568.6 522.9 560.9 525.9 556.5 527.1 C550.4 528.7 545.4 529.2 536 529.2 C526.5 529.2 521.6 528.7 515.7 527.1 C511.4 525.9 505 523.6 501.5 522 C497.9 520.3 492.5 516.6 489.5 513.8 C485.5 510.2 482.9 506.6 480.6 501.6 C478.7 497.7 476.7 492.3 476 489.6 C475.4 487 474.5 479.3 474 472.6 C473.4 465.9 473.3 449 473.6 435 C473.9 420.9 474.1 409.1 474 408.7 L474 408"/>
                             <path d="M495 367 L494.5 367C494.2 367 494 366.3 494 365.5 C494 364.6 494.2 364 494.5 364 C494.7 364 495 363.7 495 363.5 L495 363L495 363 L496.8 363C497.9 363 499 362.1 499.2 361 C499.5 359.9 500.2 359 500.8 359 C501.3 359 502.5 359.7 503.4 360.5 C504.2 361.4 505 363.4 505 365 C505 366.5 504.2 368.5 503.4 369.4 C502.5 370.2 501.3 371 500.8 371 C500.2 371 499.5 370.1 499.2 369 C499 367.9 498.1 367 497.3 367 C496.6 367 495.7 367 495.5 367 L495 367"/>
                             <path d="M265 347 L264.9 346.7C264.8 346.6 263.2 345.1 261.2 343.5 C259.2 341.8 256.6 338.2 255.4 335.5 C254.1 332.7 252.9 328.5 252.5 326.2 L252 322L252 322 L252.5 216L253 110 263.4 110 L273.9 110 274.2 180.9 L274.5 251.8 277.5 256.1 C279.4 259 282.3 261.4 285.9 263.2 C288.9 264.7 292.9 265.9 294.9 265.9 C296.8 265.9 300 265.5 302 265 C303.9 264.4 307.2 262.6 309.2 260.9 C311.3 259.2 313.9 256 315 253.9 C316.8 250.3 317 247.9 317 223.7 L317 197.3 313.4 195.6 C311.5 194.7 309.5 192.8 308.9 191.4 C308.3 189.8 308 173.5 308.2 149.1 L308.5 109.5 320.5 109.5 L332.5 109.5 332.7 149.9 C332.9 183.6 332.7 190.6 331.5 192.5 C330.8 193.7 328.7 195.2 327 195.9 L323.8 197.3 324.1 223.4 C324.4 247.8 324.6 249.7 326.6 253.5 C327.8 255.7 329.8 258.4 331.1 259.6 C332.4 260.8 335.5 262.7 338 263.9 C340.4 265 344 265.9 346 265.9 C347.9 265.9 351.2 265.5 353.3 264.9 C355.4 264.3 358.9 262.2 361.2 260.1 C363.4 258.1 366.1 254.7 367.1 252.5 C368.7 248.9 368.9 245.5 368.9 222.8 C368.9 198.8 368.8 197 367.1 196.5 C366.1 196.2 364.3 195 363.1 193.9 C361 191.9 361 191.7 361 150.4 L361 109 373 109 L385 109 385 149.7 C385 185.5 384.8 190.8 383.3 192.8 C382.5 194 380.7 195.5 379.3 196 L377 196.9 377 222.7 C377 245.4 377.2 248.9 378.8 252.5 C379.8 254.7 382.5 258.1 384.7 260.1 C387 262.2 390.5 264.3 392.6 264.9 C394.7 265.5 398 265.9 400 265.9 C401.9 265.9 405.5 265 408 263.9 C410.4 262.7 413.5 260.8 414.8 259.6 C416.1 258.4 417.8 256.2 418.5 254.7 C419.7 252.6 420 246.2 420 224.6 L420 197.2 416.9 195.9 C415.2 195.2 413.4 193.9 412.9 192.9 C412.3 191.8 412 174.4 412 150 L412 108.8 424 109.1 L436 109.4 436 149.9 C436 185.5 435.8 190.8 434.3 192.8 C433.5 194 431.7 195.5 430.3 196 L428 196.9 428 222.2 C428 246.5 428.1 247.6 430.3 252.5 C431.6 255.2 434.2 258.8 436.1 260.5 C438 262.2 441.7 264.2 444.2 264.9 C447.1 265.7 450.6 265.9 453.4 265.5 C455.9 265.1 460 263.4 462.6 261.6 C465.5 259.7 468.2 256.7 469.6 254 L472 249.6 472 179.8 L472 110 483 110 L494 110 494 129.5 L494 149 496.5 149 C498.2 149 499.3 148.2 500 146.5 C500.5 145 501.7 144 502.9 144 C504 143.9 505.5 145 506.4 146.2 C507.2 147.4 508 149.9 508 151.7 C508 153.6 507.1 155.8 506 157 C504.9 158.1 503.3 158.9 502.4 159 C501.6 159 500.5 157.9 500 156.6 C499.5 155.3 498.2 154 497.1 153.7 C496 153.4 494.8 153.4 494.5 153.7 C494.2 154 494 158.9 494 164.6 C494 174.9 494 175 496.4 175 C497.9 175 499 174.2 499.4 173 C499.8 172 500.7 170.6 501.4 170 C502.6 169 503.4 169.3 505.4 171.3 C507.1 173 508 175 508 177.1 C508 179 507.1 181.2 505.8 182.6 C504.6 183.9 503 185 502.2 185 C501.5 184.9 500.4 183.6 499.8 181.9 C499 179.7 498.1 178.9 496.4 179 C494 179 494 179 494 190 C494 200.9 494 201 496.4 201 C498.1 201 499 200.2 499.8 198 C500.4 196.3 501.5 195 502.4 195 C503.2 195 504.8 195.9 505.9 197.1 C507.1 198.4 508 200.7 508 202.7 C508 204.9 507.1 206.9 505.4 208.6 C503.4 210.6 502.6 210.9 501.4 209.9 C500.7 209.3 499.8 207.9 499.4 206.9 C499 205.7 497.9 205 496.4 205 L494 205 494 218.5 C494 231.3 494 232 496 232 C497.1 232 498.8 231.4 499.9 230.8 C501.4 229.8 502.1 229.9 503.4 230.9 C504.2 231.6 505 232.9 505 233.9 C505 234.8 504.4 236.1 503.8 236.7 C503.1 237.4 501.7 237.9 500.8 238 C499.8 238 499 237.5 499 237 C499 236.4 497.8 236 496.5 236 L494 236 494 247 L494 258 496.5 258 C498 258 499 257.4 499 256.5 C499 255.6 499.8 255 500.8 255 C501.9 255 503.2 255.6 503.9 256.4 C504.6 257.2 504.9 259.3 504.8 261 C504.6 262.8 503.6 264.7 502.6 265.3 C501.1 266.2 500.5 266 499.2 264.2 C498.4 263 496.9 262 495.8 262 C494.1 262 494 262.9 494 273.5 C494 284.5 494 285 496.1 285 C497.3 285 498.8 284.2 499.4 283.3 C500.4 282 501 281.9 502.8 282.9 C504.1 283.6 505 285 505 286.5 C505 287.9 504.1 289.3 502.8 290 C501 291 500.4 290.9 499.4 289.6 C498.8 288.7 497.3 288 496.1 288 C494 288 494 288.4 494 299.5 L494 311 496.5 311 C498 311 499 310.4 499 309.4 C499 308.6 499.7 307.6 500.6 307.3 C501.6 306.9 502.8 307.3 503.6 308.5 C504.3 309.5 505 311.5 505 313 C505 314.4 504.1 316.4 503 317.4 C501.9 318.4 500.6 318.9 500 318.5 C499.4 318.1 499 317.2 499 316.5 C499 315.8 498.1 315 497 314.7 C495.9 314.4 494.8 314.4 494.5 314.7 C494.2 315 494 320.1 494 326.1 C494 332.1 494.4 337.1 494.9 337.4 C495.5 337.8 497.3 337.3 498.9 336.3 C501.3 334.9 502.1 334.8 503.4 335.9 C504.2 336.6 505 338 505 339 C505 339.9 504.2 341.3 503.4 342 C502.1 343 501.4 343.1 499.9 342.1 C498.8 341.5 497.1 341 496 341 C494.2 341 494 341.6 494 347 C494 350.3 494 353.2 494 353.5 L494 354L494 354 L493.4 352.2C493.1 351.2 492.2 348.4 491.4 346 C490.7 343.5 489.8 340 489.5 338.2 L489 335L489 335 L489 320.2C489 312.1 489.1 271.5 489.2 230 C489.3 188.4 489.3 153.4 489.2 152.2 L489 150L489 150 L489.5 150C489.7 150 490 143.9 490 136.5 C490 129 489.7 123 489.5 123 L489 123L489 122 L489 121.5C489 121.2 489 120.7 489 120.5 L489 120L488 120 L487.5 120C487.2 120 487 165.6 487 221.5 C487 277.3 487.2 323 487.5 323 L488 323L488 323 L488 326.5C488 328.4 488 330.2 488 330.5 L488 331L488 331 L487.5 331C487.3 331 486.9 331.5 486.7 332.2 C486.5 332.9 485.4 331.8 484.4 329.7 C483.3 327.7 480.5 323.6 478.2 320.5 L474 315L474 315 L474 314.2C474 313.8 473.9 305.1 473.7 295 L473.5 276.5 373.7 276.2 L274 275.9 274 286.8 L274 297.6 279.7 295.6 C284.2 294 288.1 293.6 297.5 293.5 C304.1 293.5 311.6 293.8 314.2 294.2 L319 295L319 295 L323.2 297.2C325.5 298.4 329.5 300.7 332 302.3 C334.4 303.9 337.6 306.7 339 308.5 C340.3 310.4 341.8 312.1 342.2 312.4 L343 313L343 313 L344.1 316.2C344.7 318 345.2 322 345.3 325.1 C345.3 328.8 344.5 332.1 343.1 335.2 C341.8 337.7 338.8 341.7 336.4 343.9 C333.9 346.2 328.7 349.6 324.9 351.4 C321 353.3 314.6 355.3 310.7 356 C306.4 356.7 299.7 357 294.5 356.6 C289.4 356.3 282.8 355.2 279.5 354 C276.2 352.8 271.7 350.8 269.5 349.5 C267.3 348.2 265.3 347.1 265.2 347 L265 347"/>
                            </g>
                            <g fill="#fbf5fc" fill-rule="evenodd">
                             <path d="M343 313 L342.2 312.4C341.8 312.1 340.3 310.4 339 308.5 C337.6 306.7 334.4 303.9 332 302.3 C329.5 300.7 325.5 298.4 323.2 297.2 L319 295L319 295 L319 294.6C319 294.4 322.1 293.5 326 292.6 C329.9 291.6 339.5 289.8 347.4 288.4 C355.3 287.1 367.8 285.7 375.1 285.3 C383.5 284.9 392.9 285.1 400.5 285.9 C407.1 286.6 417.4 288.4 423.5 290 C429.5 291.5 438.1 294.4 442.6 296.3 C447.1 298.2 453.8 301.7 457.6 304.1 C461.4 306.4 466.3 309.8 468.6 311.6 C470.8 313.5 472.9 315 473.3 315 L474 315L474 315 L478.2 320.5C480.5 323.6 483.3 327.7 484.4 329.7 C485.4 331.8 486.5 332.9 486.7 332.2 C486.9 331.5 487.3 331 487.5 331 L488 331L488 331 L488 331.5C488 331.7 488 333.4 488.1 335.2 C488.1 337 488.4 337.7 488.6 336.7 L489 335L489 335 L489.5 338.2C489.8 340 490.7 343.5 491.4 346 C492.2 348.4 493.1 351.2 493.4 352.2 L494 354L494 354 L493.9 354.7C493.9 355.1 494.1 357.1 494.4 359.2 L495 363L495 363 L495 363.5C495 363.7 494.7 364 494.5 364 C494.2 364 494 364.6 494 365.5 C494 366.3 494.2 367 494.5 367 L495 367L495 367 L494.8 369.7C494.8 371.2 494.6 372.8 494.3 373.2 L494 374L494 374 L492 379.7C490.9 382.9 490 386 490 386.7 C490 387.4 490 388.6 490 389.5 L490 391L489.6 391 489.2 391.2 L488 391 L487.5 393L487 395L487 395 L487 393.3C487 392.4 485.5 393.8 483.7 396.4 C481.9 399 479 402.6 477.2 404.5 L474 408L474 408 L473.4 408C473.1 408 467.2 411.7 460.2 416.4 C453.2 421 443.3 426.8 438.2 429.4 C433.1 432 423.5 435.8 416.8 438 C410.1 440.2 397.6 443.5 389 445.4 C380.4 447.4 371.2 449.2 368.7 449.6 C366.1 449.9 364 450.7 364 451.4 C364 452 371.4 460 380.5 469.2 C389.6 478.4 400.8 488.7 405.3 492.1 C409.8 495.4 416.7 499.8 420.7 501.7 C425.3 503.9 430 505.3 433.8 505.7 C437.3 506 441.2 505.7 443.5 504.9 C445.6 504.2 449.7 501.4 452.6 498.7 L457.9 493.7 461.7 496.8 C463.7 498.4 468.6 503 472.4 506.9 L479.4 514 474.9 518 C472.5 520.2 468.2 523.3 465.5 524.9 C462.7 526.6 458.1 528.4 455.3 529 C451.6 529.8 448.4 529.8 444.3 529 C441.1 528.4 434.7 526.2 430.2 524 C425.6 521.8 418.9 518.1 415.2 515.7 C411.5 513.3 404.4 507.9 399.5 503.8 C394.5 499.6 384.4 490.2 376.9 482.8 C369.5 475.5 357 462.1 349.1 453.2 C341.2 444.3 334.4 437 334 437 C333.6 437 330.9 442.7 328.1 449.7 C325.4 456.7 321.7 467.6 320.1 474 C318.4 480.3 316.2 490.2 315.1 496 C314 501.7 312.6 511 311.9 516.5 C311.2 522 310.5 526.6 310.4 526.8 C310.2 527 306.1 523.8 301.2 519.7 C296.4 515.6 291.9 511.6 291.3 510.8 C290.5 509.8 290.5 506.7 291.5 499 C292.3 493.2 294.1 482.4 295.5 475 C297 467.5 300.4 454.5 303.2 446 C306.1 437.2 311 425.2 314.5 418.3 C317.9 411.6 323.6 401.7 327.2 396.3 C330.8 390.9 336.9 382.6 340.6 378 C344.4 373.3 352.9 363.9 359.5 357 L371.6 344.5 377.7 351 C381 354.5 384.9 358.9 386.4 360.7 L389.2 364 377.8 375.7 C371.6 382.2 363.6 391 360.1 395.3 C356.7 399.7 351.7 406.4 349.1 410.3 C346.4 414.2 342.6 420.3 340.6 423.7 L337 430 339.8 430 C341.3 430 349.3 428.8 357.5 427.5 C365.7 426.1 377 423.9 382.5 422.5 C388 421.2 397.2 418.4 403 416.4 C408.7 414.4 418.5 410.3 424.7 407.2 C430.8 404.2 440.6 398.1 446.3 393.8 C452.1 389.5 458.8 383.6 461.2 380.7 C463.6 377.8 466.3 374.3 467.1 373 C467.9 371.6 469.7 367.8 470.9 364.5 C472.8 359.7 473.3 356.4 473.3 348.4 C473.4 341 472.9 337 471.5 333.4 C470.5 330.7 468.3 327 466.6 325.1 C464.9 323.3 461.3 320.5 458.7 318.8 C456.1 317.1 450.9 314.7 447.1 313.4 C443.3 312.1 436.9 310.3 432.9 309.4 C428.8 308.6 418.3 307.4 409.5 306.9 C398.9 306.3 389.1 306.3 380.5 307 C373.3 307.6 362.1 309.1 355.5 310.4 C348.9 311.7 343.3 312.8 343.2 312.8 L343 313"/>
                             <path d="M252 322 L252.5 326.2C252.9 328.5 254.1 332.7 255.4 335.5 C256.6 338.2 259.2 341.8 261.2 343.5 C263.2 345.1 264.8 346.6 264.9 346.7 L265 347L265 347 L264.8 347.2C264.7 347.3 261.2 350.8 257 355 C251.8 360.2 248.4 364.6 245.9 369.4 C242.8 375.7 242.5 377.1 242.5 384.9 C242.5 392.6 242.7 393.9 245.2 397.5 C246.7 399.7 249.9 402.8 252.3 404.4 C255.7 406.7 257.9 409.6 261.9 416.8 C264.7 422 266.9 426.3 266.7 426.5 C266.6 426.7 262.8 424.6 258.4 421.9 C254 419.3 248.1 415 245.2 412.6 C242.3 410.1 237.6 405.4 234.9 402.2 C232.1 399.1 228.2 393.1 226.2 389 C223 382.4 222.5 380.3 222.1 372.3 C221.8 365.7 222.2 361.6 223.4 357.3 C224.4 354.1 226.1 349.9 227.2 348 C228.3 346 231.1 342 233.4 339 C235.6 336 240.6 331 244.5 327.8 C248.3 324.6 251.6 322 251.7 322 L252 322"/>
                            </g>
                           </svg>